<svg width="44" height="44" fill="none" xmlns="http://www.w3.org/2000/svg"><path d="M15.992 28h-1.44V16.576h6.384v1.264h-4.944v4.048h4.64v1.264h-4.64V28zm10.009-11.424c.95 0 1.728.123 2.336.368.619.235 1.077.592 1.376 1.072.299.48.448 1.083.448 1.808 0 .608-.112 1.115-.336 1.52-.224.405-.512.73-.864.976a4.78 4.78 0 01-1.088.56L31.009 28h-1.68l-2.768-4.72h-2.272V28h-1.44V16.576H26zm-.08 1.248h-1.632v4.24H26c.618 0 1.125-.08 1.52-.24.395-.17.682-.416.864-.736.192-.32.288-.72.288-1.2 0-.501-.101-.901-.304-1.2-.192-.299-.49-.517-.896-.656-.405-.139-.923-.208-1.552-.208z" fill="#E8D5B7"/><rect x=".5" y=".5" width="43" height="43" rx="7.5" stroke="#E8896B"/></svg>