<svg width="44" height="44" fill="none" xmlns="http://www.w3.org/2000/svg"><path d="M18.936 28h-6.384V16.576h6.384v1.264h-4.944v3.568h4.656v1.248h-4.656v4.08h4.944V28zm11.563 0h-1.68l-6.112-9.488h-.064l.032.64c.021.235.037.49.048.768l.032.832c.01.288.016.576.016.864V28h-1.328V16.576h1.664l6.096 9.456h.064a16.04 16.04 0 01-.032-.528 117.481 117.481 0 01-.064-1.648c-.011-.299-.016-.576-.016-.832v-6.448h1.344V28z" fill="#E8D5B7"/><rect x=".5" y=".5" width="43" height="43" rx="7.5" stroke="#E8896B"/></svg>