<svg xmlns="http://www.w3.org/2000/svg" width="54" height="54" fill="none" viewBox="0 0 54 54">
  <path stroke="#5C4C8B" stroke-linecap="round" stroke-linejoin="round" stroke-width="5.333" d="M38 2.666A5.333 5.333 0 0 0 32.665 8v15.998A5.333 5.333 0 0 0 38 29.33a2.667 2.667 0 0 1 2.667 2.666v2.667a5.333 5.333 0 0 1-5.333 5.333 2.666 2.666 0 0 0-2.666 2.666v5.333a2.666 2.666 0 0 0 2.666 2.666A15.998 15.998 0 0 0 51.33 34.663V7.999a5.333 5.333 0 0 0-5.333-5.333H38Zm-30 0A5.333 5.333 0 0 0 2.666 8v15.998a5.333 5.333 0 0 0 5.332 5.333 2.666 2.666 0 0 1 2.667 2.666v2.667a5.333 5.333 0 0 1-5.333 5.333 2.666 2.666 0 0 0-2.667 2.666v5.333a2.667 2.667 0 0 0 2.667 2.666A15.998 15.998 0 0 0 21.33 34.663V7.999a5.333 5.333 0 0 0-5.333-5.333H8Z"/>
</svg>
