<svg xmlns="http://www.w3.org/2000/svg" width="40" height="40" fill="none" viewBox="0 0 40 40">
  <path stroke="#1A1A3E" stroke-linecap="round" stroke-linejoin="round" stroke-width="3.333" d="M31.667 5H8.333A3.333 3.333 0 0 0 5 8.333v23.334A3.333 3.333 0 0 0 8.333 35h23.334A3.333 3.333 0 0 0 35 31.667V8.333A3.333 3.333 0 0 0 31.667 5Z"/>
  <path stroke="#1A1A3E" stroke-linecap="round" stroke-linejoin="round" stroke-width="3.333" d="M15 18.333a3.333 3.333 0 1 0 0-6.666 3.333 3.333 0 0 0 0 6.666ZM35 25l-5.143-5.143a3.333 3.333 0 0 0-4.714 0L10 35"/>
</svg>
