<svg xmlns="http://www.w3.org/2000/svg" width="32" height="32" fill="none" viewBox="0 0 32 32">
  <path stroke="#1A1A3E" stroke-linecap="round" stroke-linejoin="round" stroke-width="2" d="m13.743 18.256 6.462-6.461m6.61-3.943L21.36 25.578c-.49 1.588-.734 2.383-1.155 2.646a1.332 1.332 0 0 1-1.217.102c-.46-.19-.832-.935-1.575-2.422l-3.455-6.91c-.118-.235-.177-.353-.256-.455-.07-.09-.15-.172-.241-.242-.1-.077-.216-.135-.441-.248l-6.925-3.462c-1.487-.744-2.23-1.116-2.421-1.575a1.332 1.332 0 0 1 .1-1.217c.264-.422 1.058-.667 2.648-1.156l17.726-5.454c1.249-.384 1.874-.577 2.296-.422.367.135.657.425.792.792.155.422-.037 1.047-.421 2.295l-.001.002Z"/>
</svg>
